<svg width="59" height="19" viewBox="0 0 59 19" fill="none" xmlns="http://www.w3.org/2000/svg">
<path d="M4.416 18.48C2.96 18.48 1.856 18.08 1.104 17.28C0.368 16.48 -2.16067e-07 15.472 -2.16067e-07 14.256C-2.16067e-07 13.392 0.176 12.528 0.528 11.664C0.896 10.784 1.416 10.016 2.088 9.36C2.76 8.704 3.544 8.264 4.44 8.04C3.944 7.688 3.576 7.264 3.336 6.768C3.096 6.256 2.976 5.72 2.976 5.16C2.976 4.328 3.2 3.512 3.648 2.712C4.112 1.912 4.744 1.264 5.544 0.768003C6.36 0.256003 7.256 3.33786e-06 8.232 3.33786e-06C9.24 3.33786e-06 10.064 0.264003 10.704 0.792003C11.344 1.32 11.664 2.056 11.664 3C11.664 3.704 11.488 4.296 11.136 4.776C10.784 5.256 10.368 5.496 9.888 5.496C9.456 5.496 9.08 5.28 8.76 4.848C9.048 4.752 9.296 4.488 9.504 4.056C9.712 3.624 9.816 3.192 9.816 2.76C9.816 2.296 9.688 1.96 9.432 1.752C9.176 1.528 8.864 1.416 8.496 1.416C8.032 1.416 7.608 1.584 7.224 1.92C6.856 2.24 6.568 2.664 6.36 3.192C6.152 3.704 6.048 4.24 6.048 4.8C6.048 5.568 6.248 6.248 6.648 6.84C7.048 7.416 7.656 7.808 8.472 8.016C7.656 8.192 6.92 8.592 6.264 9.216C5.608 9.84 5.096 10.568 4.728 11.4C4.36 12.216 4.176 13 4.176 13.752C4.176 14.472 4.36 15.056 4.728 15.504C5.112 15.952 5.688 16.176 6.456 16.176C7.256 16.176 8.088 15.96 8.952 15.528C9.832 15.08 10.48 14.48 10.896 13.728L11.448 13.968C10.824 15.344 9.864 16.44 8.568 17.256C7.272 18.072 5.888 18.48 4.416 18.48ZM16.5596 18.432C14.7516 18.432 13.4236 17.976 12.5756 17.064C11.7276 16.152 11.3036 14.64 11.3036 12.528C11.3036 10.848 11.5836 9.04 12.1436 7.104C12.7196 5.168 13.6316 3.512 14.8796 2.136C16.1436 0.744003 17.7436 0.0480027 19.6796 0.0480027C20.8796 0.0480027 21.8476 0.312003 22.5836 0.840004C23.3196 1.368 23.6876 2.176 23.6876 3.264C23.6876 3.952 23.5516 4.496 23.2796 4.896C23.0076 5.28 22.5836 5.472 22.0076 5.472C21.4316 5.472 20.9756 5.264 20.6396 4.848C20.9276 4.704 21.1836 4.416 21.4076 3.984C21.6316 3.552 21.7436 3.104 21.7436 2.64C21.7436 2.208 21.6236 1.856 21.3836 1.584C21.1596 1.312 20.7916 1.176 20.2796 1.176C19.4316 1.176 18.6236 1.76 17.8556 2.928C17.0876 4.08 16.4636 5.536 15.9836 7.296C15.5196 9.056 15.2876 10.752 15.2876 12.384C15.2876 13.6 15.4956 14.528 15.9116 15.168C16.3276 15.808 17.0796 16.128 18.1676 16.128C19.1116 16.128 19.9836 15.92 20.7836 15.504C21.5836 15.088 22.2716 14.496 22.8476 13.728L23.3996 13.968C22.9996 14.976 22.4076 15.816 21.6236 16.488C20.8396 17.16 19.9996 17.656 19.1036 17.976C18.2076 18.28 17.3596 18.432 16.5596 18.432ZM29.6653 18.192C28.3213 18.192 27.2653 17.808 26.4973 17.04C25.7453 16.272 25.3693 15.048 25.3693 13.368C25.3693 11.944 25.6253 10.344 26.1373 8.568C26.6493 6.792 27.3933 5.272 28.3693 4.008C29.3613 2.744 30.5293 2.112 31.8733 2.112C32.3533 2.112 32.7693 2.176 33.1213 2.304C32.4173 2.72 31.7373 3.576 31.0813 4.872C30.4413 6.168 29.9213 7.616 29.5213 9.216C29.1213 10.816 28.9213 12.232 28.9213 13.464C28.9213 14.328 29.0333 15.008 29.2573 15.504C29.4813 16 29.8333 16.248 30.3133 16.248C31.0973 16.248 31.8733 15.688 32.6413 14.568C33.4253 13.432 34.0653 12.008 34.5613 10.296C35.0733 8.584 35.3293 6.936 35.3293 5.352C35.3293 4.36 35.2413 3.568 35.0653 2.976C34.9053 2.368 34.6013 1.912 34.1533 1.608C33.7053 1.304 33.0733 1.152 32.2573 1.152C31.0253 1.152 29.8813 1.408 28.8253 1.92C27.7693 2.416 26.9213 3.136 26.2813 4.08C25.6573 5.008 25.3453 6.088 25.3453 7.32C25.3453 7.752 25.3853 8.072 25.4653 8.28C25.5453 8.472 25.5853 8.584 25.5853 8.616C24.7853 8.616 24.1773 8.456 23.7613 8.136C23.3613 7.816 23.1613 7.304 23.1613 6.6C23.1613 5.496 23.6093 4.44 24.5053 3.432C25.4173 2.424 26.6173 1.608 28.1053 0.984004C29.6093 0.360003 31.1853 0.0480027 32.8333 0.0480027C34.8333 0.0480027 36.2813 0.592003 37.1773 1.68C38.0733 2.768 38.5213 4.272 38.5213 6.192C38.5213 7.904 38.2013 9.688 37.5613 11.544C36.9213 13.4 35.9293 14.976 34.5853 16.272C33.2573 17.552 31.6173 18.192 29.6653 18.192ZM46.4423 1.56C45.2262 1.96 44.2822 2.624 43.6102 3.552C42.9542 4.464 42.6262 5.6 42.6262 6.96C42.6262 7.568 42.6822 7.984 42.7943 8.208C42.9063 8.432 42.9623 8.568 42.9623 8.616C41.2502 8.616 40.3942 7.888 40.3942 6.432C40.3942 5.44 40.7702 4.448 41.5222 3.456C42.2902 2.448 43.2662 1.632 44.4502 1.008C45.6503 0.368003 46.8423 0.0480027 48.0263 0.0480027C48.6183 0.0480027 49.2263 0.160003 49.8503 0.384003L49.2983 13.032L54.5783 0.384003H58.0343L55.5143 18.048H52.0582L53.5943 7.272L49.0823 18.048H45.7942L46.2743 7.224L42.2662 18.048H40.3462L46.4423 1.56Z" fill="black"/>
</svg>
